{"title":"Stolichani v poveche - Season 3 - Episode 14","uid":7316810,"size":300149569,"categoryP":"video","categoryS":"tv_shows","magnet":"?xt=urn:btih:e9062e1d4a6da048617d2f14e146f97bea1b0c6e&amp;dn=Stolichani+v+poveche+-+Season+3+-+Episode+14&amp;tr=udp%3A%2F%2Ftracker.openbittorrent.com%3A80&amp;tr=udp%3A%2F%2Fopen.demonii.com%3A1337&amp;tr=udp%3A%2F%2Ftracker.coppersurfer.tk%3A6969&amp;tr=udp%3A%2F%2Fexodus.desync.com%3A6969","seeders":1,"leechers":0,"uploader":"Jell181155","files":1,"time":1338503182,"description":"Stolichani v poveche - Season 3 - Episode 14\n\nweb rip from voyo.bg\n\n   General\n      Format : MPEG-4\n      Format profile : Base Media\n      Codec ID : isom\n      File size : 286 MiB\n      Duration : 48mn 14s\n      Overall bit rate : 829 Kbps\n   Video #1\n      ID : 1\n      Format : AVC\n      Format/Info : Advanced Video Codec\n      Format profile : &lt;a class=&quot;__cf_email__&quot; href=&quot;/cdn-cgi/l/email-protection&quot; data-cfemail=&quot;80c8e9e7e8c0ccb3aeb1&quot;&gt;[email&amp;#160;protected]&lt;/a&gt;&lt;script cf-hash='f9e31' type=&quot;text/javascript&quot;&gt;\n/* &lt;![CDATA[ */!function(){try{var t=&quot;currentScript&quot;in document?document.currentScript:function(){for(var t=document.getElementsByTagName(&quot;script&quot;),e=t.length;e--;)if(t[e].getAttribute(&quot;cf-hash&quot;))return t[e]}();if(t&amp;&amp;t.previousSibling){var e,r,n,i,c=t.previousSibling,a=c.getAttribute(&quot;data-cfemail&quot;);if(a){for(e=&quot;&quot;,r=parseInt(a.substr(0,2),16),n=2;a.length-n;n+=2)i=parseInt(a.substr(n,2),16)^r,e+=String.fromCharCode(i);e=document.createTextNode(e),c.parentNode.replaceChild(e,c)}}}catch(u){}}();/* ]]&gt; */&lt;/script&gt;\n      Format settings, CABAC : Yes\n      Format settings, ReFrames : 4 frames\n      Codec ID : avc1\n      Duration : 48mn 14s\n      Bit rate mode : Variable\n      Bit rate : 695 Kbps\n      Width : 720 pixels\n      Height : 408 pixels\n      Display aspect ratio : 16:9\n      Frame rate mode : Constant\n      Frame rate : 25.000 fps\n      Color space : YUV\n      Chroma subsampling : 4:2:0\n      Bit depth : 8 bits\n      Scan type : Progressive\n      Bits/(Pixel*Frame) : 0.095\n      Stream size : 240 MiB (84%)\n   Audio #2\n      ID : 2\n      Format : AAC\n      Format/Info : Advanced Audio Codec\n      Format profile : LC\n      Codec ID : 40\n      Duration : 48mn 14s\n      Bit rate mode : Constant\n      Bit rate : 128 Kbps\n      Channel(s) : 2 channels\n      Channel positions : Front: L R\n      Sampling rate : 44.1 KHz\n      Compression mode : Lossy\n      Stream size : 44.2 MiB (15%)","torrent":{"xt":"urn:btih:e9062e1d4a6da048617d2f14e146f97bea1b0c6e","amp;dn":"Stolichani+v+poveche+-+Season+3+-+Episode+14","amp;tr":["udp%3A%2F%2Ftracker.openbittorrent.com%3A80","udp%3A%2F%2Fopen.demonii.com%3A1337","udp%3A%2F%2Ftracker.coppersurfer.tk%3A6969","udp%3A%2F%2Fexodus.desync.com%3A6969"],"infoHash":"e9062e1d4a6da048617d2f14e146f97bea1b0c6e","infoHashBuffer":{"type":"Buffer","data":[233,6,46,29,74,109,160,72,97,125,47,20,225,70,249,123,234,27,12,110]},"announce":[],"urlList":[]}}